<svg width="136" height="136" viewBox="0 0 136 136" fill="none" xmlns="http://www.w3.org/2000/svg">
<rect x="1.98425" y="1.99982" width="131.873" height="131.873" rx="65.9363" fill="#D9D9D9" fill-opacity="0.1"/>
<path d="M67.3468 131.462L67.4303 112.326L68.5666 112.331L68.4831 131.467L67.3468 131.462Z" fill="white" fill-opacity="0.5"/>
<path d="M52.6425 113.627L48.1426 124.358L44.5166 122.837C43.6783 122.486 43.0502 122.054 42.6323 121.542C42.213 121.034 41.9781 120.477 41.9276 119.873C41.8771 119.268 41.9845 118.65 42.2496 118.018C42.5147 117.385 42.8791 116.879 43.3426 116.498C43.8062 116.118 44.3638 115.9 45.0155 115.844C45.6656 115.792 46.4064 115.941 47.2378 116.289L50.1721 117.52L49.6799 118.694L46.7875 117.481C46.2147 117.241 45.7184 117.131 45.2988 117.152C44.8756 117.172 44.521 117.303 44.2349 117.544C43.9439 117.788 43.7083 118.124 43.5281 118.554C43.3479 118.983 43.2708 119.393 43.2967 119.781C43.3227 120.17 43.4754 120.526 43.755 120.848C44.0331 121.175 44.4621 121.459 45.0419 121.702L47.3265 122.66L51.343 113.082L52.6425 113.627ZM45.5699 116.329L44.9505 110.401L46.4595 111.034L47.037 116.945L45.5699 116.329Z" fill="white" fill-opacity="0.5"/>
<path d="M33.431 109.594C34.1172 108.577 34.894 107.821 35.7613 107.328C36.6286 106.835 37.5182 106.603 38.4299 106.633C39.3416 106.663 40.2089 106.956 41.0316 107.511C41.8544 108.066 42.4505 108.76 42.82 109.594C43.1895 110.428 43.308 111.34 43.1756 112.329C43.0431 113.318 42.6337 114.321 41.9474 115.338C41.2612 116.356 40.4844 117.111 39.6171 117.605C38.7498 118.098 37.8602 118.329 36.9485 118.299C36.0368 118.269 35.1695 117.977 34.3468 117.422C33.524 116.867 32.9279 116.172 32.5584 115.338C32.1889 114.504 32.0704 113.593 32.2028 112.604C32.3353 111.615 32.7447 110.612 33.431 109.594ZM34.5615 110.357C33.998 111.192 33.6623 111.991 33.5541 112.754C33.4428 113.515 33.5247 114.203 33.7998 114.819C34.0718 115.431 34.4998 115.935 35.0839 116.329C35.668 116.723 36.2967 116.932 36.9699 116.957C37.6401 116.979 38.3087 116.798 38.9758 116.411C39.6398 116.023 40.2535 115.411 40.8169 114.576C41.3804 113.741 41.7177 112.942 41.829 112.181C41.9371 111.418 41.8552 110.73 41.5833 110.117C41.3082 109.502 40.8786 108.998 40.2945 108.604C39.7104 108.21 39.0833 108.001 38.4132 107.979C37.7399 107.954 37.0712 108.136 36.4073 108.524C35.7402 108.911 35.1249 109.521 34.5615 110.357Z" fill="white" fill-opacity="0.5"/>
<path d="M35.8812 103.756L27.6172 111.948L26.6252 110.948L34.0014 103.636L30.1934 99.7941L31.0811 98.9141L35.8812 103.756Z" fill="white" fill-opacity="0.5"/>
<path d="M29.8497 97.2907L20.1463 103.713L16.2702 97.8571L17.3125 97.1672L20.4109 101.848L23.6896 99.6782L20.7919 95.3003L21.8343 94.6104L24.7319 98.9883L28.0296 96.8056L24.881 92.0487L25.9234 91.3587L29.8497 97.2907Z" fill="white" fill-opacity="0.5"/>
<path d="M21.4697 80.1741L21.7515 81.6242L9.51368 79.6503L9.23614 78.2225L19.8434 71.8079L20.1253 73.258L11.1733 78.5405L11.1907 78.6297L21.4697 80.1741ZM16.9036 80.5059L15.7675 74.6608L16.9945 74.4223L18.1307 80.2674L16.9036 80.5059Z" fill="white" fill-opacity="0.5"/>
<path d="M20.2867 61.5111L8.88395 59.1912L9.66783 55.3383C9.84983 54.4438 10.1601 53.7454 10.5985 53.2432C11.0341 52.7365 11.5526 52.4014 12.1541 52.2377C12.7556 52.074 13.3923 52.0605 14.0641 52.1972C14.736 52.3339 15.3186 52.5955 15.8121 52.9819C16.3063 53.3647 16.659 53.8732 16.8701 54.5076C17.0775 55.1412 17.0909 55.9015 16.9104 56.7887L16.3486 59.5503L15.1237 59.3011L15.6765 56.584C15.8011 55.9716 15.7954 55.4582 15.6593 55.044C15.5232 54.6298 15.2922 54.3025 14.9661 54.0622C14.6371 53.8175 14.2443 53.6486 13.7877 53.5558C13.3312 53.4629 12.9055 53.4652 12.5107 53.5627C12.1167 53.6564 11.7795 53.87 11.499 54.2034C11.2149 54.536 11.0098 55.0122 10.8837 55.6321L10.3898 58.0596L20.5676 60.1303L20.2867 61.5111Z" fill="white" fill-opacity="0.5"/>
<path d="M22.5055 52.1505L21.9342 53.5129L12.8555 45.0727L13.418 43.7313L25.8014 44.2909L25.2301 45.6532L14.852 45.0719L14.8168 45.1558L22.5055 52.1505ZM18.5246 49.8897L20.8273 44.3985L21.9801 44.8818L19.6774 50.3731L18.5246 49.8897ZM11.8096 44.5108L9.91443 42.2128L10.5209 40.7666L12.2666 43.421L11.8096 44.5108Z" fill="white" fill-opacity="0.5"/>
<path d="M23.5014 33.6053C23.1144 33.495 22.738 33.4399 22.3724 33.4401C22.0058 33.4349 21.6546 33.4882 21.3189 33.5998C20.9852 33.7083 20.6728 33.8768 20.3816 34.1053C20.0904 34.3339 19.8273 34.6224 19.5922 34.971C19.2067 35.5425 19.0037 36.1618 18.9833 36.8288C18.9629 37.4958 19.1468 38.1613 19.5351 38.8252C19.9234 39.4892 20.5352 40.1029 21.3705 40.6663C22.2058 41.2298 23.005 41.5656 23.7682 41.6737C24.5314 41.7818 25.2216 41.6968 25.8387 41.4186C26.4559 41.1403 26.9657 40.7029 27.3681 40.1063C27.7409 39.5536 27.9515 38.9874 27.9998 38.4077C28.0471 37.8228 27.9335 37.2664 27.659 36.7386C27.3835 36.2055 26.9505 35.7399 26.3601 35.3417L26.677 35.0345L24.7198 37.9361L23.6835 37.2371L26.1617 33.563L27.198 34.262C27.9925 34.7979 28.569 35.4335 28.9275 36.1687C29.2881 36.9008 29.4299 37.6727 29.3531 38.4844C29.2752 39.2908 28.9778 40.0771 28.461 40.8434C27.8848 41.6975 27.1776 42.3125 26.3393 42.6883C25.5031 43.0609 24.5927 43.1779 23.608 43.0391C22.6254 42.8972 21.6254 42.4831 20.6079 41.7968C19.8448 41.2821 19.2275 40.7173 18.756 40.1022C18.2834 39.4819 17.9591 38.8383 17.7831 38.1712C17.607 37.5042 17.5781 36.8359 17.6962 36.1663C17.8144 35.4966 18.0821 34.8525 18.4993 34.2338C18.8425 33.7251 19.2393 33.3028 19.6897 32.967C20.1391 32.6259 20.62 32.3769 21.1325 32.2199C21.644 32.0578 22.1712 31.9907 22.7142 32.0189C23.2541 32.0449 23.7876 32.1718 24.3148 32.3995L23.5014 33.6053Z" fill="white" fill-opacity="0.5"/>
<path d="M26.8042 24.6294L34.9964 32.8934L33.9957 33.8854L25.8035 25.6214L26.8042 24.6294Z" fill="white" fill-opacity="0.5"/>
<path d="M39.2974 15.2273L45.7199 24.9307L44.5828 25.6834L34.2525 21.5645L34.1577 21.6272L39.2004 29.2459L38.0254 30.0236L31.6029 20.3202L32.74 19.5676L43.1018 23.6929L43.1965 23.6302L38.1413 15.9925L39.2974 15.2273Z" fill="white" fill-opacity="0.5"/>
<path d="M47.0016 24.4519L45.6343 25.0113L45.1828 12.6235L46.5291 12.0727L54.8898 21.2248L53.5225 21.7842L46.5951 14.0347L46.5109 14.0692L47.0016 24.4519ZM45.7853 20.0384L51.2965 17.7837L51.7698 18.9406L46.2586 21.1953L45.7853 20.0384Z" fill="white" fill-opacity="0.5"/>
<path d="M69.0309 4.27896L68.9474 23.4151L67.811 23.4102L67.8945 4.274L69.0309 4.27896Z" fill="white" fill-opacity="0.5"/>
<path d="M83.7355 22.1144L88.2354 11.3833L91.8613 12.9038C92.6997 13.2553 93.3278 13.6871 93.7456 14.1992C94.1649 14.7077 94.3998 15.2642 94.4503 15.8686C94.5008 16.473 94.3935 17.0914 94.1283 17.7236C93.8632 18.3559 93.4989 18.8624 93.0353 19.243C92.5717 19.6237 92.0141 19.8417 91.3625 19.897C90.7123 19.9488 89.9715 19.8004 89.1401 19.4518L86.2059 18.2214L86.698 17.0477L89.5904 18.2605C90.1633 18.5008 90.6595 18.6103 91.0792 18.5891C91.5023 18.5694 91.8569 18.4388 92.143 18.1973C92.434 17.9538 92.6697 17.6172 92.8498 17.1875C93.03 16.7579 93.1071 16.3486 93.0812 15.9599C93.0553 15.5711 92.9025 15.2155 92.623 14.8929C92.3449 14.5668 91.9159 14.2821 91.336 14.039L89.0515 13.081L85.0349 22.6593L83.7355 22.1144ZM90.8081 19.4119L91.4275 25.3399L89.9184 24.7071L89.3409 18.7967L90.8081 19.4119Z" fill="white" fill-opacity="0.5"/>
<path d="M102.947 26.1473C102.261 27.1648 101.484 27.9202 100.616 28.4134C99.7492 28.9067 98.8597 29.1383 97.9479 29.1082C97.0362 29.078 96.1689 28.7855 95.3462 28.2305C94.5234 27.6755 93.9273 26.981 93.5578 26.147C93.1883 25.3129 93.0698 24.4014 93.2022 23.4125C93.3347 22.4235 93.7441 21.4204 94.4304 20.4029C95.1167 19.3854 95.8934 18.6301 96.7607 18.1368C97.628 17.6435 98.5176 17.4119 99.4293 17.4421C100.341 17.4722 101.208 17.7648 102.031 18.3197C102.854 18.8747 103.45 19.5692 103.819 20.4033C104.189 21.2373 104.307 22.1488 104.175 23.1377C104.043 24.1267 103.633 25.1299 102.947 26.1473ZM101.816 25.3848C102.38 24.5495 102.716 23.7502 102.824 22.987C102.935 22.226 102.853 21.5379 102.578 20.9229C102.306 20.31 101.878 19.8065 101.294 19.4126C100.71 19.0186 100.081 18.8093 99.4079 18.7846C98.7377 18.7621 98.0691 18.9439 97.402 19.33C96.738 19.7183 96.1243 20.3301 95.5609 21.1654C94.9974 22.0008 94.6601 22.7989 94.5488 23.56C94.4407 24.3232 94.5226 25.0113 94.7945 25.6242C95.0696 26.2392 95.4992 26.7437 96.0833 27.1377C96.6674 27.5317 97.2945 27.7399 97.9646 27.7624C98.6379 27.7871 99.3066 27.6053 99.9705 27.217C100.638 26.8309 101.253 26.2201 101.816 25.3848Z" fill="white" fill-opacity="0.5"/>
<path d="M100.497 31.9852L108.761 23.793L109.753 24.7937L102.376 32.1058L106.184 35.9473L105.297 36.8273L100.497 31.9852Z" fill="white" fill-opacity="0.5"/>
<path d="M106.528 38.4506L116.232 32.0281L120.108 37.8842L119.065 38.5742L115.967 33.893L112.688 36.0632L115.586 40.4411L114.544 41.131L111.646 36.7531L108.348 38.9357L111.497 43.6927L110.454 44.3826L106.528 38.4506Z" fill="white" fill-opacity="0.5"/>
<path d="M115.515 55.631L115.233 54.1809L127.471 56.1548L127.748 57.5826L117.141 63.9972L116.859 62.5471L125.811 57.2646L125.794 57.1754L115.515 55.631ZM120.081 55.2992L121.217 61.1443L119.99 61.3828L118.854 55.5377L120.081 55.2992Z" fill="white" fill-opacity="0.5"/>
<path d="M116.091 74.2302L127.494 76.5501L126.71 80.403C126.528 81.2975 126.218 81.9959 125.779 82.4981C125.344 83.0048 124.825 83.34 124.224 83.5036C123.622 83.6673 122.986 83.6808 122.314 83.5441C121.642 83.4074 121.059 83.1459 120.566 82.7594C120.071 82.3767 119.719 81.8681 119.508 81.2338C119.3 80.6002 119.287 79.8398 119.467 78.9527L120.029 76.191L121.254 76.4403L120.701 79.1573C120.577 79.7698 120.582 80.2831 120.719 80.6973C120.855 81.1116 121.086 81.4388 121.412 81.6791C121.741 81.9239 122.134 82.0927 122.59 82.1856C123.047 82.2785 123.472 82.2762 123.867 82.1787C124.261 82.0849 124.598 81.8713 124.879 81.538C125.163 81.2054 125.368 80.7291 125.494 80.1092L125.988 77.6817L115.81 75.611L116.091 74.2302Z" fill="white" fill-opacity="0.5"/>
<path d="M113.872 83.5907L114.443 82.2284L123.522 90.6686L122.96 92.01L110.576 91.4504L111.148 90.0881L121.526 90.6693L121.561 90.5855L113.872 83.5907ZM117.853 85.8515L115.55 91.3428L114.398 90.8594L116.7 85.3681L117.853 85.8515ZM124.568 91.2304L126.463 93.5285L125.857 94.9746L124.111 92.3203L124.568 91.2304Z" fill="white" fill-opacity="0.5"/>
<path d="M112.876 102.136C113.263 102.246 113.64 102.301 114.005 102.301C114.372 102.306 114.723 102.253 115.059 102.141C115.392 102.033 115.705 101.864 115.996 101.636C116.287 101.407 116.55 101.119 116.786 100.77C117.171 100.199 117.374 99.5796 117.394 98.9126C117.415 98.2455 117.231 97.5801 116.843 96.9161C116.454 96.2521 115.843 95.6384 115.007 95.075C114.172 94.5116 113.373 94.1758 112.609 94.0676C111.846 93.9595 111.156 94.0445 110.539 94.3228C109.922 94.601 109.412 95.0384 109.01 95.6351C108.637 96.1878 108.426 96.7539 108.378 97.3336C108.331 97.9185 108.444 98.4749 108.719 99.0027C108.994 99.5358 109.427 100.001 110.018 100.4L109.701 100.707L111.658 97.8052L112.694 98.5042L110.216 102.178L109.18 101.479C108.385 100.943 107.809 100.308 107.45 99.5726C107.09 98.8405 106.948 98.0686 107.025 97.2569C107.103 96.4505 107.4 95.6642 107.917 94.898C108.493 94.0438 109.2 93.4288 110.038 93.0531C110.875 92.6804 111.785 92.5635 112.77 92.7022C113.752 92.8441 114.752 93.2582 115.77 93.9445C116.533 94.4592 117.15 95.0241 117.622 95.6391C118.094 96.2594 118.419 96.9031 118.595 97.5701C118.771 98.2371 118.8 98.9054 118.681 99.5751C118.563 100.245 118.296 100.889 117.878 101.507C117.535 102.016 117.138 102.439 116.688 102.774C116.239 103.115 115.758 103.364 115.245 103.521C114.734 103.684 114.206 103.751 113.663 103.722C113.124 103.696 112.59 103.57 112.063 103.342L112.876 102.136Z" fill="white" fill-opacity="0.5"/>
<path d="M109.574 111.112L101.381 102.848L102.382 101.856L110.574 110.12L109.574 111.112Z" fill="white" fill-opacity="0.5"/>
<path d="M97.0803 120.514L90.6578 110.811L91.7949 110.058L102.125 114.177L102.22 114.114L97.1773 106.495L98.3523 105.718L104.775 115.421L103.638 116.174L93.2759 112.048L93.1812 112.111L98.2364 119.749L97.0803 120.514Z" fill="white" fill-opacity="0.5"/>
<path d="M89.3762 111.29L90.7435 110.73L91.195 123.118L89.8487 123.669L81.4881 114.517L82.8553 113.957L89.7827 121.707L89.8669 121.672L89.3762 111.29ZM90.5925 115.703L85.0813 117.958L84.608 116.801L90.1192 114.546L90.5925 115.703Z" fill="white" fill-opacity="0.5"/>
</svg>
